<?xml version="1.0" standalone="no"?>
<!DOCTYPE svg PUBLIC "-//W3C//DTD SVG 20010904//EN"
 "http://www.w3.org/TR/2001/REC-SVG-20010904/DTD/svg10.dtd">
<svg version="1.0" xmlns="http://www.w3.org/2000/svg"
 width="750.000000pt" height="750.000000pt" viewBox="0 0 750.000000 750.000000"
 preserveAspectRatio="xMidYMid meet">
<metadata>
Created by potrace 1.14, written by Peter Selinger 2001-2017
</metadata>
<g transform="translate(0.000000,750.000000) scale(0.100000,-0.100000)"
fill="#000000" stroke="none">
<path d="M2280 6529 c-472 -53 -912 -271 -1215 -602 -220 -241 -372 -541 -436
-866 -27 -136 -36 -385 -20 -547 56 -557 330 -1205 751 -1770 264 -355 581
-657 1070 -1021 347 -258 827 -543 1199 -713 l114 -52 46 18 c88 33 497 244
661 340 650 380 1245 869 1596 1309 470 591 779 1277 844 1877 106 989 -621
1891 -1633 2023 -166 21 -317 19 -440 -6 -128 -26 -324 -91 -492 -164 -181
-78 -472 -232 -535 -283 l-24 -20 117 -203 c64 -112 177 -307 250 -434 l133
-230 592 -5 592 -5 -291 -505 c-161 -278 -292 -509 -292 -515 0 -5 129 -234
287 -508 158 -274 289 -504 293 -512 4 -13 -71 -15 -589 -15 l-593 0 -255
-440 c-140 -242 -257 -440 -260 -440 -4 0 -121 198 -260 440 l-255 440 -593 0
c-525 0 -593 2 -588 15 3 8 135 239 292 513 158 273 287 502 287 507 0 6 -131
237 -292 515 l-291 505 592 5 592 5 248 430 c136 236 247 434 245 440 -7 20
-198 129 -402 230 -270 133 -464 205 -651 241 -82 15 -271 17 -394 3z"/>
</g>
</svg>
